<svg width="256" height="267" viewBox="0 0 256 267" fill="none" xmlns="http://www.w3.org/2000/svg">
<rect width="256" height="267" rx="128" fill="#32334A"/>
<path d="M176.3 199H165.9L161.5 183.4C160.167 185.933 158.3 188.333 155.9 190.6C153.633 192.867 150.9 194.867 147.7 196.6C144.633 198.333 141.167 199.667 137.3 200.6C133.567 201.667 129.7 202.2 125.7 202.2C117.433 202.2 109.967 200.267 103.3 196.4C96.6333 192.533 90.9667 187.467 86.3 181.2C81.6333 174.8 78.0333 167.467 75.5 159.2C73.1 150.933 71.9 142.4 71.9 133.6C71.9 122.933 73.3667 113.267 76.3 104.6C79.2333 95.9333 83.1 88.5333 87.9 82.4C92.8333 76.2667 98.5667 71.5333 105.1 68.2C111.633 64.8667 118.5 63.2 125.7 63.2C133.033 63.2 139.567 64.2667 145.3 66.4C151.033 68.5333 155.967 71.4 160.1 75C164.233 78.6 167.633 82.8 170.3 87.6C172.967 92.2667 174.967 97.2667 176.3 102.6H161.5C159.1 95 155.1 89 149.5 84.6C143.9 80.0667 135.967 77.8 125.7 77.8C119.3 77.8 113.767 79.4667 109.1 82.8C104.567 86 100.767 90.2667 97.7 95.6C94.7667 100.933 92.5667 106.933 91.1 113.6C89.7667 120.133 89.1 126.8 89.1 133.6C89.1 141.467 89.9667 148.733 91.7 155.4C93.4333 161.933 95.9 167.6 99.1 172.4C102.3 177.2 106.1 180.933 110.5 183.6C115.033 186.267 120.033 187.6 125.5 187.6C129.9 187.6 134.233 186.2 138.5 183.4C142.9 180.467 146.767 176.8 150.1 172.4C153.567 168 156.3 163.133 158.3 157.8C160.433 152.467 161.5 147.333 161.5 142.4H125.7V128.2H176.3V199Z" fill="white"/>
</svg>
